<mxfile host="app.diagrams.net" modified="2022-08-10T06:08:51.372Z" agent="5.0 (Macintosh; Intel Mac OS X 10_15_7) AppleWebKit/537.36 (KHTML, like Gecko) Chrome/104.0.0.0 Safari/537.36" etag="7_0nFekrc5nWbo2n2Jdt" version="20.2.3" type="github">
  <diagram id="xG2fvlVbT680UrmnYNV8" name="Page-1">
    <mxGraphModel dx="895" dy="558" grid="1" gridSize="10" guides="1" tooltips="1" connect="1" arrows="1" fold="1" page="1" pageScale="1" pageWidth="827" pageHeight="1169" math="0" shadow="0">
      <root>
        <mxCell id="0" />
        <mxCell id="1" parent="0" />
        <mxCell id="ShSozhRtPsqz1D0XB1Wz-2" value="AsyncMQ" style="shape=umlLifeline;perimeter=lifelinePerimeter;whiteSpace=wrap;html=1;container=1;collapsible=0;recursiveResize=0;outlineConnect=0;" parent="1" vertex="1">
          <mxGeometry x="140" y="120" width="100" height="520" as="geometry" />
        </mxCell>
        <mxCell id="ShSozhRtPsqz1D0XB1Wz-3" value="Kiwi" style="shape=umlLifeline;perimeter=lifelinePerimeter;whiteSpace=wrap;html=1;container=1;collapsible=0;recursiveResize=0;outlineConnect=0;" parent="1" vertex="1">
          <mxGeometry x="270" y="120" width="100" height="520" as="geometry" />
        </mxCell>
        <mxCell id="ShSozhRtPsqz1D0XB1Wz-4" value="Team Service" style="shape=umlLifeline;perimeter=lifelinePerimeter;whiteSpace=wrap;html=1;container=1;collapsible=0;recursiveResize=0;outlineConnect=0;" parent="1" vertex="1">
          <mxGeometry x="430" y="120" width="100" height="520" as="geometry" />
        </mxCell>
        <mxCell id="ShSozhRtPsqz1D0XB1Wz-12" value="" style="html=1;points=[];perimeter=orthogonalPerimeter;" parent="ShSozhRtPsqz1D0XB1Wz-4" vertex="1">
          <mxGeometry x="45" y="250" width="10" height="50" as="geometry" />
        </mxCell>
        <mxCell id="ShSozhRtPsqz1D0XB1Wz-5" value="Send MQ" style="html=1;verticalAlign=bottom;startArrow=oval;startFill=1;endArrow=block;startSize=8;rounded=0;" parent="1" source="ShSozhRtPsqz1D0XB1Wz-2" target="ShSozhRtPsqz1D0XB1Wz-3" edge="1">
          <mxGeometry width="60" relative="1" as="geometry">
            <mxPoint x="380" y="410" as="sourcePoint" />
            <mxPoint x="440" y="410" as="targetPoint" />
            <Array as="points">
              <mxPoint x="230" y="200" />
            </Array>
          </mxGeometry>
        </mxCell>
        <mxCell id="ShSozhRtPsqz1D0XB1Wz-10" value="data mapping" style="edgeStyle=orthogonalEdgeStyle;html=1;align=left;spacingLeft=2;endArrow=block;rounded=0;" parent="1" source="ShSozhRtPsqz1D0XB1Wz-3" target="ShSozhRtPsqz1D0XB1Wz-3" edge="1">
          <mxGeometry x="-0.0344" y="-30" relative="1" as="geometry">
            <mxPoint x="400" y="380" as="sourcePoint" />
            <Array as="points">
              <mxPoint x="380" y="290" />
              <mxPoint x="380" y="350" />
            </Array>
            <mxPoint y="1" as="offset" />
          </mxGeometry>
        </mxCell>
        <mxCell id="ShSozhRtPsqz1D0XB1Wz-13" value="http call save team data" style="html=1;verticalAlign=bottom;endArrow=block;entryX=0;entryY=0;rounded=0;" parent="1" source="ShSozhRtPsqz1D0XB1Wz-3" target="ShSozhRtPsqz1D0XB1Wz-12" edge="1">
          <mxGeometry relative="1" as="geometry">
            <mxPoint x="400" y="380" as="sourcePoint" />
          </mxGeometry>
        </mxCell>
        <mxCell id="ShSozhRtPsqz1D0XB1Wz-14" value="response" style="html=1;verticalAlign=bottom;endArrow=open;dashed=1;endSize=8;exitX=0;exitY=0.95;rounded=0;" parent="1" source="ShSozhRtPsqz1D0XB1Wz-12" target="ShSozhRtPsqz1D0XB1Wz-3" edge="1">
          <mxGeometry relative="1" as="geometry">
            <mxPoint x="400" y="456" as="targetPoint" />
          </mxGeometry>
        </mxCell>
        <mxCell id="ShSozhRtPsqz1D0XB1Wz-15" value="Set the bit&amp;nbsp; and releae lock" style="edgeStyle=orthogonalEdgeStyle;html=1;align=left;spacingLeft=2;endArrow=block;rounded=0;" parent="1" source="ShSozhRtPsqz1D0XB1Wz-3" target="ShSozhRtPsqz1D0XB1Wz-3" edge="1">
          <mxGeometry x="-1" y="-42" relative="1" as="geometry">
            <mxPoint x="320" y="510" as="sourcePoint" />
            <Array as="points">
              <mxPoint x="381" y="510" />
              <mxPoint x="381" y="580" />
            </Array>
            <mxPoint x="320" y="580" as="targetPoint" />
            <mxPoint x="-30" y="-12" as="offset" />
          </mxGeometry>
        </mxCell>
        <mxCell id="qjWdK9vGteafhTTBeMFZ-1" value="check lock" style="edgeStyle=orthogonalEdgeStyle;html=1;align=left;spacingLeft=2;endArrow=block;rounded=0;" edge="1" parent="1" source="ShSozhRtPsqz1D0XB1Wz-3" target="ShSozhRtPsqz1D0XB1Wz-3">
          <mxGeometry x="-0.0344" y="-30" relative="1" as="geometry">
            <mxPoint x="329.5" y="300" as="sourcePoint" />
            <Array as="points">
              <mxPoint x="380" y="220" />
              <mxPoint x="380" y="270" />
            </Array>
            <mxPoint y="1" as="offset" />
            <mxPoint x="329.5" y="360" as="targetPoint" />
          </mxGeometry>
        </mxCell>
        <mxCell id="qjWdK9vGteafhTTBeMFZ-12" style="rounded=0;orthogonalLoop=1;jettySize=auto;html=1;exitX=0.5;exitY=1;exitDx=0;exitDy=0;entryX=0.5;entryY=0;entryDx=0;entryDy=0;" edge="1" parent="1" source="qjWdK9vGteafhTTBeMFZ-2" target="qjWdK9vGteafhTTBeMFZ-7">
          <mxGeometry relative="1" as="geometry" />
        </mxCell>
        <mxCell id="qjWdK9vGteafhTTBeMFZ-13" style="edgeStyle=none;rounded=0;orthogonalLoop=1;jettySize=auto;html=1;exitX=0.5;exitY=1;exitDx=0;exitDy=0;entryX=0.5;entryY=0;entryDx=0;entryDy=0;" edge="1" parent="1" source="qjWdK9vGteafhTTBeMFZ-2" target="qjWdK9vGteafhTTBeMFZ-6">
          <mxGeometry relative="1" as="geometry" />
        </mxCell>
        <mxCell id="qjWdK9vGteafhTTBeMFZ-2" value="1" style="ellipse;whiteSpace=wrap;html=1;" vertex="1" parent="1">
          <mxGeometry x="200" y="740" width="80" height="40" as="geometry" />
        </mxCell>
        <mxCell id="qjWdK9vGteafhTTBeMFZ-14" style="edgeStyle=none;rounded=0;orthogonalLoop=1;jettySize=auto;html=1;exitX=0.5;exitY=1;exitDx=0;exitDy=0;entryX=0.5;entryY=0;entryDx=0;entryDy=0;" edge="1" parent="1" source="qjWdK9vGteafhTTBeMFZ-6" target="qjWdK9vGteafhTTBeMFZ-8">
          <mxGeometry relative="1" as="geometry" />
        </mxCell>
        <mxCell id="qjWdK9vGteafhTTBeMFZ-15" style="edgeStyle=none;rounded=0;orthogonalLoop=1;jettySize=auto;html=1;exitX=0.5;exitY=1;exitDx=0;exitDy=0;entryX=0.5;entryY=0;entryDx=0;entryDy=0;" edge="1" parent="1" source="qjWdK9vGteafhTTBeMFZ-6" target="qjWdK9vGteafhTTBeMFZ-9">
          <mxGeometry relative="1" as="geometry" />
        </mxCell>
        <mxCell id="qjWdK9vGteafhTTBeMFZ-6" value="1,1" style="ellipse;whiteSpace=wrap;html=1;" vertex="1" parent="1">
          <mxGeometry x="140" y="810" width="80" height="40" as="geometry" />
        </mxCell>
        <mxCell id="qjWdK9vGteafhTTBeMFZ-16" style="edgeStyle=none;rounded=0;orthogonalLoop=1;jettySize=auto;html=1;exitX=0.5;exitY=1;exitDx=0;exitDy=0;entryX=0.5;entryY=0;entryDx=0;entryDy=0;" edge="1" parent="1" source="qjWdK9vGteafhTTBeMFZ-7" target="qjWdK9vGteafhTTBeMFZ-10">
          <mxGeometry relative="1" as="geometry" />
        </mxCell>
        <mxCell id="qjWdK9vGteafhTTBeMFZ-17" style="edgeStyle=none;rounded=0;orthogonalLoop=1;jettySize=auto;html=1;exitX=0.5;exitY=1;exitDx=0;exitDy=0;entryX=0.625;entryY=0;entryDx=0;entryDy=0;entryPerimeter=0;" edge="1" parent="1" source="qjWdK9vGteafhTTBeMFZ-7" target="qjWdK9vGteafhTTBeMFZ-11">
          <mxGeometry relative="1" as="geometry" />
        </mxCell>
        <mxCell id="qjWdK9vGteafhTTBeMFZ-7" value="1,2" style="ellipse;whiteSpace=wrap;html=1;" vertex="1" parent="1">
          <mxGeometry x="270" y="810" width="80" height="40" as="geometry" />
        </mxCell>
        <mxCell id="qjWdK9vGteafhTTBeMFZ-8" value="1,1,1" style="ellipse;whiteSpace=wrap;html=1;" vertex="1" parent="1">
          <mxGeometry x="70" y="880" width="80" height="40" as="geometry" />
        </mxCell>
        <mxCell id="qjWdK9vGteafhTTBeMFZ-9" value="1,1,2" style="ellipse;whiteSpace=wrap;html=1;" vertex="1" parent="1">
          <mxGeometry x="160" y="880" width="80" height="40" as="geometry" />
        </mxCell>
        <mxCell id="qjWdK9vGteafhTTBeMFZ-10" value="1,2,1" style="ellipse;whiteSpace=wrap;html=1;" vertex="1" parent="1">
          <mxGeometry x="250" y="880" width="80" height="40" as="geometry" />
        </mxCell>
        <mxCell id="qjWdK9vGteafhTTBeMFZ-11" value="1,2,2" style="ellipse;whiteSpace=wrap;html=1;" vertex="1" parent="1">
          <mxGeometry x="340" y="880" width="80" height="40" as="geometry" />
        </mxCell>
      </root>
    </mxGraphModel>
  </diagram>
</mxfile>
